<?xml version="1.0" encoding="iso-8859-1"?>
<!-- Generator: Adobe Illustrator 19.0.0, SVG Export Plug-In . SVG Version: 6.00 Build 0)  -->
<svg xmlns="http://www.w3.org/2000/svg" xmlns:xlink="http://www.w3.org/1999/xlink" version="1.1" id="Layer_1" x="0px" y="0px" viewBox="0 0 512.646 512.646" style="enable-background:new 0 0 512.646 512.646;" xml:space="preserve" width="512px" height="512px">
<g transform="translate(1 1)">
	<g>
		<path d="M502.789,305.669c-15.186-30.371-36.216-58.235-60.605-82.777c-1.488-16.016-7.989-31.661-19.608-44.37    c-19.981-23.178-48.945-37.372-79.179-39.779c-1.452-3.091-3.207-6.068-5.301-8.86c-8.533-11.947-23.04-19.627-38.4-19.627    h-90.453c-15.36,0-29.013,7.68-38.4,19.627c-1.705,2.273-3.177,4.673-4.456,7.151c-30.845,2.742-60.523,16.985-80.877,39.782    c-12.519,13.693-19.101,30.794-19.865,48.096c-23.113,23.835-42.381,50.669-57.789,79.051c-11.947,20.48-11.947,46.08,0.853,66.56    c11.093,18.773,33.28,29.867,55.467,29.867c7.68,0,15.36-0.853,22.187-4.267l89.443-35.455    c11.203,4.253,23.063,6.442,35.143,6.442c4.53,0,9.049-0.39,13.08-1.391c6.558,10.814,17.933,17.604,30.44,17.604    c12.327,0,23.55-6.599,30.15-17.142c4.421,0.526,8.698,0.929,13.37,0.929c12.039,0,23.859-2.171,35.027-6.286l89.559,36.152    c6.827,2.56,14.507,3.413,22.187,3.413c20.48,0,43.52-9.387,57.173-28.16C514.736,351.749,514.736,326.149,502.789,305.669z     M80.389,380.763c-17.92,6.827-45.227,1.707-58.027-18.773c-9.387-15.36-9.387-34.133,0-49.493    c12.681-23.671,27.878-44.828,45.585-65.134c3.21,12.579,9.641,24.494,19.269,34.414l58.027,60.587    c3.354,2.896,6.849,5.537,10.456,7.938L80.389,380.763z M184.03,345.331c-0.777-0.808-1.751-1.517-2.947-2.115    c-8.533-3.413-16.213-7.68-23.04-13.653l-57.173-59.733c-11.093-11.947-17.067-26.453-17.067-42.667    c0-1.247-0.344-2.38-0.903-3.399c0.958-12.994,6.045-25.74,15.41-35.854c16.213-17.92,38.4-29.867,62.293-33.28    c-0.853,7.68,0,15.36,2.56,22.187l53.76,172.373C205.7,350.053,194.48,348.725,184.03,345.331z M254.469,366.256    c-6.827,0-14.507-3.413-17.92-13.653l-57.173-180.907c-3.413-11.093-1.707-22.187,5.12-31.573c5.973-7.68,14.507-12.8,24.747-12.8    h90.453c9.387,0,18.773,4.267,24.747,12.8c1.493,2.052,2.725,4.232,3.729,6.484c0.052,0.999,0.239,2.003,0.538,2.902    c1.077,2.153,1.812,4.477,2.236,6.889c0.691,5.18,0.239,10.431-1.383,15.297l-57.173,180.907    c-0.106,0.319-0.229,0.612-0.344,0.918c-0.503,0.194-0.51,0.788-0.51,0.788c-0.225,0.451-0.386,0.964-0.477,1.518    C267.233,363.564,260.519,366.256,254.469,366.256z M291.297,349.197l54.479-172.38c2.56-7.68,3.413-14.507,2.56-22.187    c23.04,4.267,45.227,15.36,61.44,32.427c21.333,23.04,20.48,58.88-0.853,81.92l-57.173,59.733    C335.569,344.038,313.439,350.865,291.297,349.197z M485.723,361.989c-11.947,19.627-39.253,25.6-57.173,18.773l-74.863-30.282    c3.448-2.221,6.795-4.635,10.01-7.265l57.173-59.733c10.167-10.475,16.754-23.178,19.762-36.536    c17.861,20.437,33.177,42.57,45.944,66.403C495.109,327.856,495.109,346.629,485.723,361.989z" fill="#FFC000"/>
	</g>
</g>
<g>
</g>
<g>
</g>
<g>
</g>
<g>
</g>
<g>
</g>
<g>
</g>
<g>
</g>
<g>
</g>
<g>
</g>
<g>
</g>
<g>
</g>
<g>
</g>
<g>
</g>
<g>
</g>
<g>
</g>
</svg>
