<svg xmlns="http://www.w3.org/2000/svg" style="display: none;"><symbol id="category" viewBox="0 0 512 512"><title>category</title><g> <g> <path d="M461.056,70.867V50.959C461.056,22.86,438.196,0,410.097,0H268.371c-13.613,0-26.409,5.301-36.034,14.927L31.899,215.366 c-9.626,9.625-14.927,22.422-14.927,36.034c0,13.612,5.301,26.409,14.927,36.034l20.367,20.367 c-0.863,3.744-1.32,7.609-1.32,11.545c0,13.612,5.301,26.409,14.927,36.034L207.596,497.1C217.53,507.033,230.58,512,243.629,512 c13.049,0,26.099-4.967,36.033-14.902l200.44-200.44c9.626-9.626,14.927-22.422,14.927-36.034v-141.72 C495.029,96.76,480.826,77.879,461.056,70.867z M55.921,263.411c-3.208-3.208-4.976-7.474-4.976-12.012 c0-4.538,1.768-8.802,4.976-12.012L256.36,38.948c3.209-3.207,7.474-4.975,12.012-4.975h141.724 c9.366,0,16.986,7.62,16.986,16.986v16.986H302.344c-13.613,0-26.409,5.301-36.034,14.927L70.848,278.336L55.921,263.411z M456.08,272.636l-200.44,200.44c-6.625,6.624-17.4,6.622-24.022,0L89.894,331.356c-3.208-3.208-4.976-7.474-4.976-12.012 c0-4.538,1.768-8.802,4.976-12.012l200.439-200.44c3.209-3.207,7.474-4.975,12.012-4.975h141.724 c9.366,0,16.986,7.62,16.986,16.986v141.72h0.001C461.056,265.161,459.288,269.427,456.08,272.636z" style="fill:#000000" data-original="#5A5A5A" class="active-path" data-old_color="#5A5A5A"/> </g> </g><g> <g> <path d="M376.124,135.891c-28.099,0-50.959,22.86-50.959,50.959s22.86,50.959,50.959,50.959s50.959-22.86,50.959-50.959 S404.223,135.891,376.124,135.891z M376.124,203.837c-9.366,0-16.986-7.62-16.986-16.986c0-9.366,7.62-16.986,16.986-16.986 c9.366,0,16.986,7.62,16.986,16.986C393.11,196.217,385.49,203.837,376.124,203.837z" style="fill:#000000" data-original="#5A5A5A" class="active-path" data-old_color="#5A5A5A"/> </g> </g></symbol><symbol id="add-recipe" viewBox="0 0 129 129"><title>add-recipe</title><path d="M64.5,6.5c-32,0-58.1,26-58.1,58s26,58,58.1,58c32,0,58-26,58-58S96.5,6.5,64.5,6.5z M64.5,114.4 C37,114.4,14.6,92,14.6,64.5S37,14.6,64.5,14.6c27.5,0,49.9,22.4,49.9,49.9S92,114.4,64.5,114.4z" style="fill:#000000" data-original="#5A5A5A" class="active-path" data-old_color="#5A5A5A"/><path d="m91.2,59.9h-22.6v-22.7c0-2.3-1.8-4.1-4.1-4.1-2.3,0-4.1,1.8-4.1,4.1v22.6h-22.6c-2.3,0-4.1,1.8-4.1,4.1s1.8,4.1 4.1,4.1h22.6v22.6c0,2.3 1.8,4.1 4.1,4.1 2.3,0 4.1-1.8 4.1-4.1v-22.6h22.6c2.3,0 4.1-1.8 4.1-4.1s-1.8-4-4.1-4z" style="fill:#000000" data-original="#5A5A5A" class="active-path" data-old_color="#5A5A5A"/></symbol><symbol id="my-recipes" viewBox="0 0 489.7 489.7"><title>my-recipes</title><path d="M52.7,134.75c29.1,0,52.7-23.7,52.7-52.7s-23.6-52.8-52.7-52.8S0,52.95,0,81.95S23.7,134.75,52.7,134.75z M52.7,53.75 c15.6,0,28.2,12.7,28.2,28.2s-12.7,28.2-28.2,28.2s-28.2-12.7-28.2-28.2S37.2,53.75,52.7,53.75z" style="fill:#000000" data-original="#5A5A5A" class="active-path" data-old_color="#5A5A5A"/><path d="M52.7,297.55c29.1,0,52.7-23.7,52.7-52.7s-23.6-52.7-52.7-52.7S0,215.75,0,244.85S23.7,297.55,52.7,297.55z M52.7,216.65 c15.6,0,28.2,12.7,28.2,28.2s-12.7,28.2-28.2,28.2s-28.2-12.6-28.2-28.2S37.2,216.65,52.7,216.65z" style="fill:#000000" data-original="#5A5A5A" class="active-path" data-old_color="#5A5A5A"/><path d="M52.7,460.45c29.1,0,52.7-23.7,52.7-52.7c0-29.1-23.7-52.7-52.7-52.7S0,378.75,0,407.75C0,436.75,23.7,460.45,52.7,460.45 z M52.7,379.45c15.6,0,28.2,12.7,28.2,28.2c0,15.6-12.7,28.2-28.2,28.2s-28.2-12.7-28.2-28.2C24.5,392.15,37.2,379.45,52.7,379.45 z" style="fill:#000000" data-original="#5A5A5A" class="active-path" data-old_color="#5A5A5A"/><path d="M175.9,94.25h301.5c6.8,0,12.3-5.5,12.3-12.3s-5.5-12.3-12.3-12.3H175.9c-6.8,0-12.3,5.5-12.3,12.3 S169.1,94.25,175.9,94.25z" style="fill:#000000" data-original="#5A5A5A" class="active-path" data-old_color="#5A5A5A"/><path d="M175.9,257.15h301.5c6.8,0,12.3-5.5,12.3-12.3s-5.5-12.3-12.3-12.3H175.9c-6.8,0-12.3,5.5-12.3,12.3 S169.1,257.15,175.9,257.15z" style="fill:#000000" data-original="#5A5A5A" class="active-path" data-old_color="#5A5A5A"/><path d="M175.9,419.95h301.5c6.8,0,12.3-5.5,12.3-12.3s-5.5-12.3-12.3-12.3H175.9c-6.8,0-12.3,5.5-12.3,12.3 S169.1,419.95,175.9,419.95z" style="fill:#000000" data-original="#5A5A5A" class="active-path" data-old_color="#5A5A5A"/></symbol><symbol id="cuisine" viewBox="0 0 65.456 65.456"><title>cuisine</title><path d="M57.427,5.031C53.76,1.646,49.895,0,45.611,0c-5.052,0-9.663,2.314-14.123,4.553c-4.012,2.014-7.801,3.916-11.432,3.916 c-2.742,0-5.203-1.092-7.745-3.438c-0.875-0.808-2.146-1.021-3.238-0.543c-1.023,0.448-1.698,1.425-1.78,2.526 c-0.147,0.354-0.23,0.742-0.23,1.149v54.293c0,1.657,1.343,3,3,3s3-1.343,3-3V44.807c2.222,1.1,4.536,1.66,6.992,1.66 c0,0,0.001,0,0.002,0c5.051-0.001,9.662-2.314,14.122-4.553c4.013-2.014,7.803-3.915,11.434-3.915c2.742,0,5.203,1.092,7.744,3.438 c0.875,0.81,2.146,1.023,3.238,0.544c1.092-0.478,1.797-1.557,1.797-2.748V7.235C58.392,6.397,58.042,5.599,57.427,5.031z M52.392,33.534C50.236,32.506,47.989,32,45.613,32c-5.052,0-9.664,2.314-14.125,4.553c-4.012,2.013-7.801,3.914-11.431,3.915 h-0.001c-2.393,0-4.572-0.833-6.778-2.605V12.934c2.156,1.029,4.403,1.535,6.779,1.535c5.052,0,9.664-2.314,14.123-4.553 C38.192,7.902,41.982,6,45.612,6c2.395,0,4.574,0.833,6.78,2.605V33.534z"/></symbol><symbol id="level" viewBox="0 0 469.333 469.333"><title>level</title><path d="M128,224c0-5.896-4.771-10.667-10.667-10.667c-5.896,0-10.667,4.771-10.667,10.667c0,28.01,30.896,66.469,34.417,70.771 c2.115,2.563,5.177,3.896,8.26,3.896c2.375,0,4.771-0.792,6.76-2.417c4.552-3.74,5.208-10.458,1.479-15.021 C146.146,267.292,128,239.437,128,224z"/><path d="M352,213.333c-5.896,0-10.667,4.771-10.667,10.667c0,15.385-18.146,43.271-29.583,57.24 c-3.729,4.552-3.063,11.271,1.49,15.01c1.979,1.625,4.375,2.417,6.76,2.417c3.083,0,6.135-1.333,8.25-3.896 c3.521-4.302,34.417-42.76,34.417-70.771C362.667,218.104,357.896,213.333,352,213.333z"/><path d="M234.667,213.333c-5.896,0-10.667,4.771-10.667,10.667v64c0,5.896,4.771,10.667,10.667,10.667 s10.667-4.771,10.667-10.667v-64C245.333,218.104,240.562,213.333,234.667,213.333z"/><path d="M352,42.667c-6.464,0-13.219,0.855-20.234,2.158C308.273,17.439,273.496,0,234.667,0s-73.607,17.439-97.099,44.824 c-7.016-1.302-13.771-2.158-20.234-2.158C52.635,42.667,0,95.302,0,160c0,44.333,25,84.635,64.25,104.562L64.042,425.76 c-0.01,11.635,4.51,22.573,12.729,30.802c8.229,8.24,19.156,12.771,30.792,12.771h254.25c24,0,43.521-19.521,43.521-43.521 V264.406c39.104-19.979,64-60.219,64-104.406C469.333,95.302,416.698,42.667,352,42.667z M384,425.813 c0,12.229-9.958,22.188-22.188,22.188h-254.25c-5.927,0-11.5-2.313-15.698-6.51c-4.188-4.198-6.5-9.771-6.49-15.708L85.43,384 H384V425.813z M390.604,247.802c-0.563,0.229-1.094,0.5-1.594,0.823c-1.344,0.833-2.448,1.938-3.271,3.208 c-0.833,1.26-1.396,2.719-1.625,4.281c-0.094,0.594-0.125,1.188-0.115,1.792v104.76H85.457l0.137-104.615 c0.01-0.583-0.021-1.177-0.104-1.75c-0.229-1.615-0.823-3.115-1.688-4.417c-0.813-1.219-1.875-2.281-3.167-3.094 c-0.531-0.333-1.094-0.625-1.677-0.865C43.948,232.615,21.333,198.135,21.333,160c0-52.938,43.063-96,96-96 c2.069,0,4.253,0.25,6.396,0.419c-10.792,18.756-17.063,40.43-17.063,63.581c0,5.896,4.771,10.667,10.667,10.667 c5.896,0,10.667-4.771,10.667-10.667c0-58.813,47.854-106.667,106.667-106.667S341.333,69.187,341.333,128 c0,5.896,4.771,10.667,10.667,10.667c5.896,0,10.667-4.771,10.667-10.667c0-23.151-6.271-44.824-17.063-63.581 C347.747,64.25,349.931,64,352,64c52.938,0,96,43.063,96,96C448,198,425.479,232.437,390.604,247.802z"/></symbol><symbol id="maintenance" viewBox="0 0 478.703 478.703"><title>maintenance</title><path d="M454.2,189.101l-33.6-5.7c-3.5-11.3-8-22.2-13.5-32.6l19.8-27.7c8.4-11.8,7.1-27.9-3.2-38.1l-29.8-29.8 c-5.6-5.6-13-8.7-20.9-8.7c-6.2,0-12.1,1.9-17.1,5.5l-27.8,19.8c-10.8-5.7-22.1-10.4-33.8-13.9l-5.6-33.2 c-2.4-14.3-14.7-24.7-29.2-24.7h-42.1c-14.5,0-26.8,10.4-29.2,24.7l-5.8,34c-11.2,3.5-22.1,8.1-32.5,13.7l-27.5-19.8 c-5-3.6-11-5.5-17.2-5.5c-7.9,0-15.4,3.1-20.9,8.7l-29.9,29.8c-10.2,10.2-11.6,26.3-3.2,38.1l20,28.1 c-5.5,10.5-9.9,21.4-13.3,32.7l-33.2,5.6c-14.3,2.4-24.7,14.7-24.7,29.2v42.1c0,14.5,10.4,26.8,24.7,29.2l34,5.8 c3.5,11.2,8.1,22.1,13.7,32.5l-19.7,27.4c-8.4,11.8-7.1,27.9,3.2,38.1l29.8,29.8c5.6,5.6,13,8.7,20.9,8.7c6.2,0,12.1-1.9,17.1-5.5 l28.1-20c10.1,5.3,20.7,9.6,31.6,13l5.6,33.6c2.4,14.3,14.7,24.7,29.2,24.7h42.2c14.5,0,26.8-10.4,29.2-24.7l5.7-33.6 c11.3-3.5,22.2-8,32.6-13.5l27.7,19.8c5,3.6,11,5.5,17.2,5.5l0,0c7.9,0,15.3-3.1,20.9-8.7l29.8-29.8c10.2-10.2,11.6-26.3,3.2-38.1 l-19.8-27.8c5.5-10.5,10.1-21.4,13.5-32.6l33.6-5.6c14.3-2.4,24.7-14.7,24.7-29.2v-42.1 C478.9,203.801,468.5,191.501,454.2,189.101z M451.9,260.401c0,1.3-0.9,2.4-2.2,2.6l-42,7c-5.3,0.9-9.5,4.8-10.8,9.9 c-3.8,14.7-9.6,28.8-17.4,41.9c-2.7,4.6-2.5,10.3,0.6,14.7l24.7,34.8c0.7,1,0.6,2.5-0.3,3.4l-29.8,29.8c-0.7,0.7-1.4,0.8-1.9,0.8 c-0.6,0-1.1-0.2-1.5-0.5l-34.7-24.7c-4.3-3.1-10.1-3.3-14.7-0.6c-13.1,7.8-27.2,13.6-41.9,17.4c-5.2,1.3-9.1,5.6-9.9,10.8l-7.1,42 c-0.2,1.3-1.3,2.2-2.6,2.2h-42.1c-1.3,0-2.4-0.9-2.6-2.2l-7-42c-0.9-5.3-4.8-9.5-9.9-10.8c-14.3-3.7-28.1-9.4-41-16.8 c-2.1-1.2-4.5-1.8-6.8-1.8c-2.7,0-5.5,0.8-7.8,2.5l-35,24.9c-0.5,0.3-1,0.5-1.5,0.5c-0.4,0-1.2-0.1-1.9-0.8l-29.8-29.8 c-0.9-0.9-1-2.3-0.3-3.4l24.6-34.5c3.1-4.4,3.3-10.2,0.6-14.8c-7.8-13-13.8-27.1-17.6-41.8c-1.4-5.1-5.6-9-10.8-9.9l-42.3-7.2 c-1.3-0.2-2.2-1.3-2.2-2.6v-42.1c0-1.3,0.9-2.4,2.2-2.6l41.7-7c5.3-0.9,9.6-4.8,10.9-10c3.7-14.7,9.4-28.9,17.1-42 c2.7-4.6,2.4-10.3-0.7-14.6l-24.9-35c-0.7-1-0.6-2.5,0.3-3.4l29.8-29.8c0.7-0.7,1.4-0.8,1.9-0.8c0.6,0,1.1,0.2,1.5,0.5l34.5,24.6 c4.4,3.1,10.2,3.3,14.8,0.6c13-7.8,27.1-13.8,41.8-17.6c5.1-1.4,9-5.6,9.9-10.8l7.2-42.3c0.2-1.3,1.3-2.2,2.6-2.2h42.1 c1.3,0,2.4,0.9,2.6,2.2l7,41.7c0.9,5.3,4.8,9.6,10,10.9c15.1,3.8,29.5,9.7,42.9,17.6c4.6,2.7,10.3,2.5,14.7-0.6l34.5-24.8 c0.5-0.3,1-0.5,1.5-0.5c0.4,0,1.2,0.1,1.9,0.8l29.8,29.8c0.9,0.9,1,2.3,0.3,3.4l-24.7,34.7c-3.1,4.3-3.3,10.1-0.6,14.7 c7.8,13.1,13.6,27.2,17.4,41.9c1.3,5.2,5.6,9.1,10.8,9.9l42,7.1c1.3,0.2,2.2,1.3,2.2,2.6v42.1H451.9z"/><path d="M239.4,136.001c-57,0-103.3,46.3-103.3,103.3s46.3,103.3,103.3,103.3s103.3-46.3,103.3-103.3S296.4,136.001,239.4,136.001 z M239.4,315.601c-42.1,0-76.3-34.2-76.3-76.3s34.2-76.3,76.3-76.3s76.3,34.2,76.3,76.3S281.5,315.601,239.4,315.601z"/></symbol></svg>