<?xml version="1.0" encoding="iso-8859-1"?>
<!-- Generator: Adobe Illustrator 19.0.0, SVG Export Plug-In . SVG Version: 6.00 Build 0)  -->
<svg xmlns="http://www.w3.org/2000/svg" xmlns:xlink="http://www.w3.org/1999/xlink" version="1.1" id="Capa_1" x="0px" y="0px" viewBox="0 0 463 463" style="enable-background:new 0 0 463 463;" xml:space="preserve" width="512px" height="512px">
<g>
	<path d="M455.5,272h-56.525c0.011-0.166,0.025-0.331,0.025-0.5c0-10.68-7.162-19.718-16.934-22.566   C379.218,239.161,370.179,232,359.5,232c-1.474,0-2.937,0.14-4.372,0.414C349.74,222.451,339.3,216,327.5,216   c-4.302,0-8.516,0.894-12.414,2.591C310.888,212.164,303.66,208,295.5,208c-7.187,0-13.828,3.316-18.2,8.722   c-1.88-0.478-3.826-0.722-5.8-0.722c-7.187,0-13.828,3.316-18.2,8.722c-3.285-0.834-6.815-0.949-10.172-0.308   C237.74,214.451,227.3,208,215.5,208c-8.708,0-16.914,3.66-22.785,9.889c-2.884-1.238-6.008-1.889-9.215-1.889   c-6.838,0-13.295,3.011-17.714,8.068c-0.579,0.042-1.154,0.098-1.724,0.181L63.491,111.557c-4.125-4.621-10.041-7.372-16.232-7.548   c-6.198-0.176-12.255,2.235-16.634,6.614c-4.38,4.38-6.791,10.442-6.615,16.634c0.175,6.192,2.927,12.108,7.548,16.232   l109.233,97.485l-4.604,4.604l-0.07-0.07c-9.162-9.162-24.071-9.162-33.233,0L76.393,272H7.5c-4.142,0-7.5,3.357-7.5,7.5   s3.358,7.5,7.5,7.5h24c12.082,0,23.231,6.561,29.099,17.122l12.342,22.217C84.135,346.485,105.404,359,128.451,359h206.099   c23.046,0,44.316-12.515,55.509-32.661l12.342-22.217C408.269,293.56,419.418,287,431.5,287h24c4.142,0,7.5-3.357,7.5-7.5   S459.642,272,455.5,272z M195.692,235.397c2.305-0.35,4.316-1.751,5.442-3.792c2.928-5.308,8.433-8.605,14.366-8.605   c7.692,0,14.282,5.253,16.025,12.774c0.552,2.381,2.229,4.344,4.495,5.26c2.266,0.916,4.836,0.67,6.887-0.657   c2.863-1.853,6.615-1.773,9.345,0.075c1.927,1.305,4.351,1.641,6.561,0.909c2.209-0.73,3.955-2.446,4.723-4.644   c1.197-3.42,4.397-5.718,7.964-5.718c1.706,0,3.349,0.502,4.752,1.452c1.928,1.305,4.352,1.641,6.561,0.909   c2.209-0.73,3.955-2.446,4.723-4.644c1.197-3.42,4.397-5.718,7.964-5.718c4.326,0,7.926,3.281,8.375,7.633   c0.291,2.82,2.146,5.235,4.797,6.242c2.65,1.008,5.642,0.434,7.732-1.482c3.089-2.833,7.03-4.393,11.097-4.393   c7.692,0,14.282,5.253,16.025,12.774c0.552,2.381,2.229,4.344,4.495,5.26c2.266,0.916,4.836,0.67,6.887-0.657   c1.392-0.9,2.979-1.377,4.593-1.377c4.687,0,8.5,3.813,8.5,8.5c0,4.143,3.358,7.5,7.5,7.5c4.687,0,8.5,3.813,8.5,8.5   c0,0.169,0.014,0.334,0.025,0.5H258.607l-26.49-26.49c-9.162-9.162-24.071-9.162-33.233,0l-0.07,0.07l-14.542-14.542   c1.898,0.175,3.685,0.994,5.099,2.352C191.051,235.004,193.387,235.746,195.692,235.397z M225.234,272l-15.814-15.813l0.069-0.069   c1.605-1.605,3.74-2.489,6.01-2.489s4.405,0.884,6.01,2.489L237.393,272H225.234z M39.003,126.833   c-0.06-2.116,0.731-4.105,2.228-5.602c1.444-1.444,3.346-2.231,5.377-2.231c0.075,0,0.149,0.001,0.224,0.004   c2.116,0.06,4.058,0.963,5.467,2.542l89.23,99.983l-99.984-89.23C39.966,130.889,39.063,128.948,39.003,126.833z M161.49,241.489   c1.605-1.605,3.74-2.489,6.01-2.489s4.404,0.884,6.01,2.49L204.02,272h-41.413l-15.814-15.813L161.49,241.489z M113.49,256.117   c3.314-3.314,8.706-3.314,12.021,0L141.393,272H97.607L113.49,256.117z M389.289,296.837l-12.342,22.217   C368.397,334.441,352.152,344,334.549,344H128.451c-17.603,0-33.848-9.559-42.397-24.946l-12.342-22.217   c-2.014-3.625-4.469-6.911-7.257-9.837h330.091C393.757,289.925,391.302,293.212,389.289,296.837z" fill="#FFC000"/>
	<path d="M327.5,263c1.97,0,3.91-0.8,5.3-2.2c1.4-1.39,2.2-3.33,2.2-5.3s-0.8-3.91-2.2-5.3c-1.39-1.4-3.33-2.2-5.3-2.2   c-1.98,0-3.91,0.8-5.3,2.2c-1.4,1.39-2.2,3.33-2.2,5.3s0.8,3.91,2.2,5.3C323.59,262.2,325.52,263,327.5,263z" fill="#FFC000"/>
	<path d="M295.5,255c1.97,0,3.91-0.8,5.3-2.2c1.4-1.39,2.2-3.33,2.2-5.3c0-1.98-0.8-3.91-2.2-5.3c-1.39-1.4-3.33-2.2-5.3-2.2   c-1.97,0-3.91,0.8-5.3,2.2c-1.4,1.39-2.2,3.319-2.2,5.3c0,1.97,0.8,3.91,2.2,5.3C291.59,254.2,293.53,255,295.5,255z" fill="#FFC000"/>
	<path d="M271.5,263c1.97,0,3.91-0.8,5.3-2.2c1.4-1.39,2.2-3.33,2.2-5.3s-0.8-3.91-2.2-5.3c-1.39-1.4-3.33-2.2-5.3-2.2   c-1.98,0-3.91,0.8-5.3,2.2c-1.4,1.39-2.2,3.33-2.2,5.3s0.8,3.91,2.2,5.3C267.59,262.2,269.52,263,271.5,263z" fill="#FFC000"/>
</g>
<g>
</g>
<g>
</g>
<g>
</g>
<g>
</g>
<g>
</g>
<g>
</g>
<g>
</g>
<g>
</g>
<g>
</g>
<g>
</g>
<g>
</g>
<g>
</g>
<g>
</g>
<g>
</g>
<g>
</g>
</svg>
