<?xml version="1.0" encoding="iso-8859-1"?>
<!-- Generator: Adobe Illustrator 18.0.0, SVG Export Plug-In . SVG Version: 6.00 Build 0)  -->
<!DOCTYPE svg PUBLIC "-//W3C//DTD SVG 1.1//EN" "http://www.w3.org/Graphics/SVG/1.1/DTD/svg11.dtd">
<svg xmlns="http://www.w3.org/2000/svg" xmlns:xlink="http://www.w3.org/1999/xlink" version="1.1" id="Capa_1" x="0px" y="0px" viewBox="0 0 58.21 58.21" style="enable-background:new 0 0 58.21 58.21;" xml:space="preserve" width="512px" height="512px">
<g>
	<path d="M42.103,12.21c-2.313,0-4.538,0.672-6.485,1.937c-1.878-1.22-4.113-1.937-6.515-1.937c-2.402,0-4.637,0.717-6.515,1.937   c-1.946-1.266-4.172-1.937-6.485-1.937c-6.617,0-12,5.383-11.996,12.09l1.996,21.91c0,7.29,3.925,12,10,12   c2.313,0,4.538-0.672,6.485-1.937c1.878,1.22,4.113,1.937,6.515,1.937s4.637-0.717,6.515-1.937   c1.947,1.265,4.172,1.937,6.485,1.937c6.075,0,10-4.71,9.996-11.91l2.004-22.09C54.103,17.593,48.72,12.21,42.103,12.21z    M16.103,56.21c-5.898,0-8-5.166-8.004-10.09L6.103,24.21c0-5.514,4.486-10,10-10c1.694,0,3.334,0.431,4.81,1.254   c-2.338,2.191-3.81,5.296-3.81,8.746v22c0,3.45,1.472,6.555,3.81,8.746C19.437,55.779,17.797,56.21,16.103,56.21z M23.627,54.567   l-0.43-0.317c-1.908-1.408-3.241-3.434-3.799-5.674c-0.007-0.028-0.015-0.055-0.021-0.082c-0.078-0.323-0.134-0.652-0.179-0.983   c-0.008-0.058-0.02-0.114-0.026-0.172c-0.044-0.373-0.068-0.75-0.068-1.129v-22c0-0.379,0.025-0.756,0.068-1.129   c0.007-0.058,0.019-0.114,0.026-0.172c0.045-0.331,0.101-0.66,0.179-0.983c0.006-0.028,0.015-0.055,0.021-0.082   c0.558-2.239,1.891-4.265,3.799-5.673l0.434-0.32c1.574-1.034,3.453-1.64,5.473-1.64c2.021,0,3.902,0.607,5.476,1.643l0.43,0.317   c1.909,1.409,3.242,3.435,3.8,5.675c0.007,0.027,0.014,0.053,0.021,0.08c0.078,0.324,0.134,0.653,0.179,0.984   c0.008,0.057,0.02,0.113,0.026,0.171c0.044,0.373,0.068,0.75,0.068,1.129v22c0,0.379-0.025,0.756-0.068,1.129   c-0.006,0.058-0.019,0.113-0.026,0.171c-0.045,0.331-0.101,0.661-0.179,0.984c-0.006,0.027-0.014,0.053-0.021,0.08   c-0.558,2.24-1.891,4.267-3.8,5.675l-0.43,0.317c-1.575,1.035-3.455,1.643-5.476,1.643S25.201,55.603,23.627,54.567z M50.103,46.21   c0,4.834-2.102,10-8,10c-1.694,0-3.335-0.431-4.81-1.254c2.339-2.191,3.81-5.297,3.81-8.746v-22c0-3.45-1.472-6.555-3.81-8.746   c1.476-0.823,3.116-1.254,4.81-1.254c5.514,0,10,4.486,10.004,9.91L50.103,46.21z" fill="#FFC000"/>
	<path d="M31.926,11.012l0.713,0l0.232-0.674c0.3-0.874,0.737-1.642,1.299-2.285c1.019-1.165,2.513-1.998,4.44-2.478l0.74-0.184   l0.018-0.762c0.027-1.12,0.042-2.316-0.026-3.477L39.274,0l-1.13,0.23c-3.398,0.692-6.084,2.143-7.983,4.313   c-1.299,1.485-2.204,3.267-2.69,5.296l-0.308,1.288l1.323-0.056C29.676,11.021,30.893,11.013,31.926,11.012z M31.665,5.861   c1.389-1.587,3.31-2.726,5.722-3.395c0.006,0.459,0.004,0.92-0.003,1.374c-1.981,0.607-3.566,1.579-4.718,2.896   c-0.583,0.666-1.061,1.43-1.426,2.278c-0.46,0.002-0.945,0.007-1.44,0.017C30.235,7.843,30.86,6.781,31.665,5.861z" fill="#FFC000"/>
</g>
<g>
</g>
<g>
</g>
<g>
</g>
<g>
</g>
<g>
</g>
<g>
</g>
<g>
</g>
<g>
</g>
<g>
</g>
<g>
</g>
<g>
</g>
<g>
</g>
<g>
</g>
<g>
</g>
<g>
</g>
</svg>
